<svg xmlns="http://www.w3.org/2000/svg" viewBox="0 0 112 112" width="512" height="512">
  <rect width="112" height="112" rx="26" fill="#EEF1FE"/>
  <path d="M40 52 C58 50 64 70 50 80 C40 76 36 62 40 52 Z" fill="#4C6EF5" opacity="0.16"/>
  <g stroke="#4C6EF5" stroke-width="6" fill="none" stroke-linecap="round" stroke-linejoin="round">
    <path d="M18 40 C24 37 29 36 35 35 C40 17 63 15 64 36 C69 52 71 62 66 73 L99 104 L70 82 C60 92 40 91 31 73 C23 60 19 47 26 43 C22 42 20 41 18 40 Z"/>
    <path d="M18 40 L33 44"/>
  </g>
  <circle cx="45" cy="31" r="3.6" fill="#4C6EF5"/>
</svg>
